<svg width="16" height="16" viewBox="0 0 16 16" fill="none" xmlns="http://www.w3.org/2000/svg">
<path fill-rule="evenodd" clip-rule="evenodd" d="M15.1277 12C15.617 12 16 11.617 16 11.1277V0.893617V0.87234V0.851064V0.829787V0.808511V0.787234V0.765957V0.744681H15.9787V0.723404V0.702128V0.680851V0.659574V0.638298H15.9574V0.617021C15.9574 0.574468 15.9362 0.553191 15.9362 0.531915H15.9149V0.510638V0.489362C15.8936 0.446809 15.8723 0.404255 15.8511 0.382979L15.8298 0.361702L15.8085 0.340426V0.319149L15.7872 0.297872H15.766V0.276596L15.7447 0.255319L15.7234 0.234043H15.7021V0.212766L15.6809 0.191489H15.6596L15.6383 0.170213L15.617 0.148936H15.5957V0.12766H15.5745L15.5532 0.106383H15.5319L15.5106 0.0851064H15.4894L15.4681 0.0638298H15.4468H15.4255V0.0425532H15.4043H15.383H15.3617V0.0212766H15.3404H15.3191H15.2979H15.2766L15.2553 0H15.234H15.2128H15.1915H15.1702H15.1489H15.1277H15.1064H4.87234C4.38298 0 4 0.382979 4 0.87234C4 1.3617 4.38298 1.74468 4.87234 1.74468H13.0213L0.255319 14.5106C-0.0851064 14.8511 -0.0851064 15.4043 0.255319 15.7447C0.595745 16.0851 1.14894 16.0851 1.48936 15.7447L14.2553 2.97872V11.1277C14.2553 11.617 14.6383 12 15.1277 12Z" fill="#C8C8C8"/>
</svg>
