<svg width="1118" height="106" viewBox="0 0 1118 106" fill="none" xmlns="http://www.w3.org/2000/svg">
<path d="M1.2 67.504H5.16V56.248L1.2 59.056V56.08L5.256 53.2H8.04V67.504H11.28V70H1.2V67.504Z" fill="black"/>
<path d="M230.84 55.744L237.104 50.32C237.616 49.872 238.048 49.472 238.4 49.12C238.768 48.768 239.064 48.44 239.288 48.136C239.528 47.816 239.696 47.504 239.792 47.2C239.904 46.896 239.96 46.576 239.96 46.24C239.96 45.424 239.712 44.76 239.216 44.248C238.736 43.736 238.064 43.48 237.2 43.48C236.176 43.48 235.376 43.76 234.8 44.32C234.24 44.864 233.96 45.704 233.96 46.84H231.08C231.08 45.96 231.224 45.16 231.512 44.44C231.8 43.704 232.208 43.08 232.736 42.568C233.264 42.04 233.904 41.64 234.656 41.368C235.408 41.08 236.256 40.936 237.2 40.936C238.112 40.936 238.92 41.072 239.624 41.344C240.328 41.6 240.912 41.968 241.376 42.448C241.856 42.912 242.216 43.472 242.456 44.128C242.712 44.768 242.84 45.472 242.84 46.24C242.84 46.816 242.744 47.36 242.552 47.872C242.376 48.384 242.12 48.872 241.784 49.336C241.464 49.8 241.072 50.256 240.608 50.704C240.16 51.152 239.664 51.592 239.12 52.024L234.848 55.504H243.08V58H230.84V55.744Z" fill="black"/>
<path d="M466.96 46.264C465.984 46.264 465.12 46.144 464.368 45.904C463.632 45.648 463.008 45.296 462.496 44.848C462 44.4 461.616 43.872 461.344 43.264C461.088 42.64 460.96 41.952 460.96 41.2H463.84C463.84 42 464.088 42.624 464.584 43.072C465.096 43.504 465.888 43.72 466.96 43.72C468 43.72 468.776 43.504 469.288 43.072C469.816 42.624 470.08 42 470.08 41.2C470.08 40.384 469.84 39.744 469.36 39.28C468.88 38.8 468.08 38.56 466.96 38.56H465.28V36.16H466.96C467.92 36.16 468.64 35.96 469.12 35.56C469.6 35.144 469.84 34.552 469.84 33.784C469.84 33.016 469.608 32.44 469.144 32.056C468.696 31.672 467.968 31.48 466.96 31.48C465.968 31.48 465.232 31.68 464.752 32.08C464.288 32.48 464.056 33.04 464.056 33.76H461.176C461.176 32.304 461.664 31.136 462.64 30.256C463.632 29.376 465.072 28.936 466.96 28.936C467.904 28.936 468.736 29.056 469.456 29.296C470.176 29.536 470.776 29.864 471.256 30.28C471.736 30.68 472.096 31.152 472.336 31.696C472.592 32.24 472.72 32.824 472.72 33.448C472.72 34.408 472.464 35.216 471.952 35.872C471.44 36.512 470.736 36.968 469.84 37.24C470.816 37.528 471.576 38.016 472.12 38.704C472.68 39.376 472.96 40.288 472.96 41.44C472.96 42.112 472.832 42.744 472.576 43.336C472.32 43.928 471.936 44.44 471.424 44.872C470.928 45.304 470.304 45.648 469.552 45.904C468.8 46.144 467.936 46.264 466.96 46.264Z" fill="black"/>
<path d="M698.76 30.208H690.48V28.072L698.64 17.2H701.64V27.712H703.68V30.208H701.64V34H698.76V30.208ZM698.76 27.712V20.512L693.36 27.712H698.76Z" fill="black"/>
<path d="M927.08 22.264C926.088 22.264 925.232 22.136 924.512 21.88C923.808 21.624 923.224 21.28 922.76 20.848C922.296 20.416 921.944 19.928 921.704 19.384C921.48 18.824 921.352 18.256 921.32 17.68H924.2C924.28 18.256 924.56 18.744 925.04 19.144C925.536 19.528 926.216 19.72 927.08 19.72C928.056 19.72 928.816 19.432 929.36 18.856C929.92 18.28 930.2 17.44 930.2 16.336C930.2 15.712 930.104 15.192 929.912 14.776C929.736 14.344 929.504 14 929.216 13.744C928.928 13.472 928.592 13.28 928.208 13.168C927.84 13.04 927.464 12.976 927.08 12.976C926.392 12.976 925.816 13.096 925.352 13.336C924.904 13.576 924.544 13.904 924.272 14.32H921.68V5.2H932.12V7.696H924.512V11.608C924.88 11.256 925.312 10.976 925.808 10.768C926.304 10.544 926.928 10.432 927.68 10.432C928.496 10.432 929.232 10.56 929.888 10.816C930.56 11.072 931.128 11.448 931.592 11.944C932.072 12.44 932.44 13.056 932.696 13.792C932.952 14.512 933.08 15.352 933.08 16.312C933.08 17.224 932.936 18.048 932.648 18.784C932.36 19.52 931.952 20.144 931.424 20.656C930.896 21.168 930.264 21.568 929.528 21.856C928.792 22.128 927.976 22.264 927.08 22.264Z" fill="black"/>
<circle cx="6" cy="96" r="6" fill="#0B0B0B"/>
<circle cx="120" cy="102" r="4" fill="#0B0B0B"/>
<circle cx="236" cy="84" r="6" fill="#0B0B0B"/>
<circle cx="351" cy="97" r="4" fill="#0B0B0B"/>
<circle cx="466" cy="72" r="6" fill="#0B0B0B"/>
<circle cx="581" cy="79" r="4" fill="#0B0B0B"/>
<circle cx="696" cy="60" r="6" fill="#0B0B0B"/>
<circle cx="811" cy="73" r="4" fill="#0B0B0B"/>
<circle cx="926" cy="48" r="6" fill="#0B0B0B"/>
<circle cx="1112" cy="36" r="6" fill="#0B0B0B"/>
<circle cx="1019" cy="60" r="4" fill="#0B0B0B"/>
<line x1="6.02605" y1="95.5007" x2="121.026" y2="101.501" stroke="#0B0B0B"/>
<line x1="236.077" y1="84.494" x2="121.077" y2="102.494" stroke="#0B0B0B"/>
<line x1="350.948" y1="96.4973" x2="235.948" y2="84.4973" stroke="#0B0B0B"/>
<line x1="466.102" y1="72.4895" x2="351.102" y2="96.4895" stroke="#0B0B0B"/>
<line x1="580.974" y1="78.4993" x2="465.974" y2="72.4993" stroke="#0B0B0B"/>
<line x1="696.077" y1="60.494" x2="581.077" y2="78.494" stroke="#0B0B0B"/>
<line x1="810.948" y1="72.4973" x2="695.948" y2="60.4973" stroke="#0B0B0B"/>
<line x1="926.102" y1="48.4895" x2="811.102" y2="72.4895" stroke="#0B0B0B"/>
<line x1="926.064" y1="48.5041" x2="1019.06" y2="60.5041" stroke="#0B0B0B"/>
<line x1="1018.88" y1="60.5159" x2="1111.88" y2="36.5159" stroke="#0B0B0B"/>
</svg>
