<svg width="32" height="32" viewBox="0 0 32 32" fill="none" xmlns="http://www.w3.org/2000/svg">
<path fill-rule="evenodd" clip-rule="evenodd" d="M16.0001 6.16217C19.2043 6.16217 19.5838 6.1743 20.849 6.23214C22.0188 6.28519 22.6545 6.48101 23.0775 6.6455C23.6376 6.86333 24.0374 7.12291 24.4572 7.54276C24.8771 7.9629 25.1372 8.36271 25.3548 8.92251C25.5193 9.34575 25.7145 9.98088 25.7681 11.1513C25.8254 12.4165 25.8381 12.796 25.8381 16.0001C25.8381 19.2043 25.8254 19.5838 25.7681 20.849C25.7145 22.0191 25.5193 22.6543 25.3548 23.0775C25.1372 23.6376 24.8771 24.0371 24.4572 24.457C24.0374 24.8771 23.6376 25.137 23.0775 25.3545C22.6545 25.5193 22.0188 25.7145 20.849 25.7681C19.5838 25.8257 19.2046 25.8381 16.0001 25.8381C12.7957 25.8381 12.4165 25.8257 11.151 25.7681C9.98118 25.7145 9.34576 25.5193 8.92309 25.3545C8.36273 25.137 7.96319 24.8771 7.54306 24.457C7.12349 24.0371 6.86304 23.6376 6.6455 23.0775C6.48128 22.6543 6.28577 22.0191 6.23188 20.849C6.1746 19.5838 6.16247 19.2043 6.16247 16.0001C6.16247 12.796 6.1746 12.4165 6.23188 11.1513C6.28577 9.98088 6.48128 9.34575 6.6455 8.92251C6.86304 8.36271 7.12349 7.9629 7.54306 7.54276C7.96319 7.12291 8.36273 6.86333 8.92309 6.6455C9.34576 6.48101 9.98118 6.28519 11.151 6.23214C12.4165 6.1743 12.7962 6.16217 16.0001 6.16217ZM23.8458 9.59433C23.8458 10.3894 23.2011 11.0345 22.406 11.0345C21.6103 11.0345 20.9656 10.3894 20.9656 9.59433C20.9656 8.79921 21.6103 8.1542 22.406 8.1542C23.2011 8.1542 23.8458 8.79921 23.8458 9.59433ZM16.0001 9.83783C12.597 9.83783 9.83812 12.5968 9.83812 16.0001C9.83812 19.4032 12.597 22.1622 16.0001 22.1622C19.4035 22.1622 22.1622 19.4032 22.1622 16.0001C22.1622 12.5968 19.4035 9.83783 16.0001 9.83783ZM16.0001 20C13.7908 20 12 18.2091 12 16.0001C12 13.7909 13.7908 12.0003 16.0001 12.0003C18.2094 12.0003 20 13.7909 20 16.0001C20 18.2091 18.2094 20 16.0001 20ZM16.0001 4C12.7409 4 12.3327 4.01411 11.0525 4.07223C9.7752 4.13036 8.90306 4.33351 8.13983 4.63006C7.35064 4.93676 6.68134 5.34702 6.01403 6.01404C5.34702 6.68134 4.93676 7.35061 4.63033 8.13981C4.33351 8.90304 4.13065 9.77519 4.07252 11.0525C4.01384 12.3324 4 12.7409 4 16.0001C4 19.2593 4.01384 19.6679 4.07252 20.9478C4.13065 22.2251 4.33351 23.097 4.63033 23.8605C4.93676 24.6497 5.34702 25.3187 6.01403 25.986C6.68134 26.6533 7.35064 27.0635 8.13983 27.3702C8.90306 27.6665 9.7752 27.8696 11.0525 27.9281C12.3327 27.9862 12.7409 28 16.0001 28C19.2591 28 19.6676 27.9862 20.9478 27.9281C22.2248 27.8696 23.0972 27.6665 23.8605 27.3702C24.6497 27.0635 25.3189 26.6533 25.986 25.986C26.6533 25.3187 27.0635 24.6497 27.3702 23.8605C27.6668 23.097 27.8696 22.2251 27.9281 20.9478C27.9865 19.6679 28 19.2593 28 16.0001C28 12.7409 27.9865 12.3324 27.9281 11.0525C27.8696 9.77519 27.6668 8.90304 27.3702 8.13981C27.0635 7.35061 26.6533 6.68134 25.986 6.01404C25.3189 5.34702 24.6497 4.93676 23.8605 4.63006C23.0972 4.33351 22.2248 4.13036 20.9478 4.07223C19.6676 4.01411 19.2591 4 16.0001 4Z" fill="white"/>
</svg>
