<svg width="270" height="21" viewBox="0 0 270 21" fill="none" xmlns="http://www.w3.org/2000/svg">
<path fill-rule="evenodd" clip-rule="evenodd" d="M48.8717 20.6564H43.9362V4.43004H37.3688V20.6564H32.4334V4.43004V0.170925V0H48.8717V0.170925V4.43004V20.6564ZM0 0.166973H17.7048L0 18.1977V0.166973ZM19.9552 2.45871V20.4894H2.25043L19.9552 2.45871ZM147.643 0H152.579V1.48351H153.893C158.072 1.48351 161.492 4.96581 161.492 9.22211V9.22222C161.492 13.4786 158.072 16.961 153.893 16.961H152.579V20.6694H147.643V16.961H146.329C142.15 16.961 138.731 13.4786 138.731 9.22222V9.22211C138.731 4.96581 142.15 1.48351 146.329 1.48351H147.643V0ZM152.579 6.41925V12.0253H153.893C155.407 12.0253 156.645 10.764 156.645 9.22222V9.22211C156.645 7.68045 155.407 6.41925 153.893 6.41925H152.579ZM147.643 12.0253V6.41925H146.329C144.816 6.41925 143.577 7.68045 143.577 9.22211V9.22222C143.577 10.764 144.816 12.0253 146.329 12.0253H147.643ZM257.087 11.974H261.311L259.199 6.47355L257.087 11.974ZM256.731 0.0446303L256.714 0H256.749H261.649H261.684L261.667 0.0445271L270 20.6526H264.643L262.938 16.2122H255.46L253.755 20.6526H248.398L256.731 0.0446303ZM220.698 0.185593H220.815L220.698 0H223.752L223.753 0.000103182H225.609L230.869 8.35541L236.116 0.0214301V0H241.052V20.8368H236.116V7.90162L232.402 13.7218H232.391H229.348H229.337L225.634 7.83961V20.8368H220.698V0.185593ZM197.274 0H202.21V0.000103182H207.169C210.57 0.000103182 213.352 2.87526 213.352 6.3896C213.352 9.90384 210.57 12.7791 207.169 12.7791H202.21V20.6694H197.274V0ZM202.21 4.19055V8.58917C203.052 8.60384 203.797 8.59323 204.033 8.59323H206.286C207.458 8.59323 208.418 7.60159 208.418 6.3896C208.418 5.17772 207.458 4.18608 206.286 4.18608H204.033C203.8 4.18608 203.052 4.18046 202.21 4.19055ZM179.383 0C185.207 0 189.929 4.70104 189.929 10.4999C189.929 16.299 185.207 21 179.383 21C173.559 21 168.838 16.299 168.838 10.4999C168.838 4.70104 173.559 0 179.383 0ZM179.383 4.72133C182.4 4.72133 184.845 7.30852 184.845 10.4999C184.845 13.6914 182.4 16.2786 179.383 16.2786C176.367 16.2786 173.921 13.6914 173.921 10.4999C173.921 7.30852 176.367 4.72133 179.383 4.72133ZM120.26 0H125.196H131.385V4.43035H125.196V20.4855H120.26V4.43035H114.113V0H120.26ZM93.8553 11.974H98.0775L95.9664 6.4746L93.8553 11.974ZM93.4981 0.0445271L93.481 0H93.516H98.4168H98.4519L98.4348 0.0445271L106.767 20.6563H101.41L99.7045 16.2122H92.2285L90.5224 20.6563H85.1654L93.4981 0.0445271ZM64.5332 0H64.5682H69.4689H69.5041L69.487 0.0445271L77.8195 20.6563H72.4625L67.0187 6.4746L61.5746 20.6563H56.2176L64.5503 0.0445271L64.5332 0Z" fill="#FEFEFE"/>
</svg>
