<svg width="10" height="18" viewBox="0 0 10 18" fill="none" xmlns="http://www.w3.org/2000/svg">
<path fill-rule="evenodd" clip-rule="evenodd" d="M2.64448 16.5911L8.55225 10.7712L8.5756 10.7482L8.59895 10.7252L8.6223 10.7022L8.64565 10.6792L9.71979 9.62109L9.74314 9.59809L9.76649 9.57508L9.78984 9.55208L9.78984 9.52908L9.81319 9.52908L9.83654 9.50607L9.81319 9.50607L9.83654 9.48307L9.83654 9.46007L9.85989 9.46007L9.88324 9.43706L9.88324 9.41406L9.88324 9.39106C9.92995 9.36805 9.92995 9.34505 9.92995 9.32205L9.92995 9.29904L9.9533 9.27604C9.9533 9.23003 9.97665 9.18403 9.97665 9.16102L9.97665 9.13802L9.97665 9.11502L10 9.09202L10 9.06901L9.97665 9.04601L10 9.02301L10 9L10 8.977L9.97665 8.954L10 8.954L10 8.90799L9.97665 8.90799L9.97665 8.86198L9.97665 8.83898L9.9533 8.83898L9.97665 8.81598L9.9533 8.79297L9.9533 8.76997L9.9533 8.74697L9.9533 8.72396L9.92995 8.72396L9.92995 8.67796L9.90659 8.65495L9.92995 8.63195L9.90659 8.63195L9.88324 8.60895L9.88324 8.58594L9.88324 8.56294L9.85989 8.56294L9.83654 8.53994L9.83654 8.51694L9.83654 8.49393L9.81319 8.47093L9.78984 8.47093L9.78984 8.44793L9.76649 8.44793L9.76649 8.42492L9.74314 8.40192L9.71979 8.40192L2.64448 1.40895L2.62113 1.40895L1.47694 0.258786C1.12668 -0.0862618 0.589609 -0.0862619 0.262697 0.258786C-0.0875658 0.580831 -0.0875659 1.1099 0.262697 1.45495L7.338 8.42492L7.36135 8.42492L7.36135 8.44793L7.3847 8.47093L7.40806 8.47093L7.40806 8.49393L7.43141 8.51693L7.45476 8.51693L7.92177 9L7.08114 9.85112L5.89025 11.0013L3.46176 13.4166L1.43024 15.3949L1.43024 15.4179L0.262694 16.5681C-0.0875687 16.8901 -0.0875687 17.4192 0.262694 17.7412C0.589606 18.0863 1.12668 18.0863 1.47694 17.7412L2.64448 16.5911Z" fill="#2B2A29"/>
</svg>
