<svg width="10" height="18" viewBox="0 0 10 18" fill="none" xmlns="http://www.w3.org/2000/svg">
<path fill-rule="evenodd" clip-rule="evenodd" d="M7.35552 1.40894L1.44775 7.22875L1.4244 7.25176L1.40105 7.27476L1.3777 7.29776L1.35435 7.32077L0.280211 8.37891L0.25686 8.40192L0.23351 8.42492L0.210158 8.44792L0.210158 8.47093L0.186808 8.47093L0.163456 8.49393L0.186808 8.49393L0.163456 8.51693L0.163456 8.53993L0.140106 8.53993L0.116754 8.56294L0.116754 8.58594L0.116754 8.60894C0.070053 8.63195 0.070053 8.65495 0.070053 8.67795L0.070053 8.70096L0.0467022 8.72396C0.0467022 8.76997 0.0233515 8.81597 0.0233515 8.83898L0.0233515 8.86198L0.0233515 8.88498L7.94849e-07 8.90798L7.92838e-07 8.93099L0.0233515 8.95399L7.88816e-07 8.97699L7.86805e-07 9L7.84794e-07 9.023L0.0233515 9.04601L7.82783e-07 9.04601L7.78761e-07 9.09201L0.0233515 9.09201L0.0233515 9.13802L0.0233515 9.16102L0.0467022 9.16102L0.0233515 9.18402L0.0467022 9.20703L0.0467022 9.23003L0.0467022 9.25303L0.0467022 9.27604L0.0700529 9.27604L0.0700529 9.32204L0.0934046 9.34505L0.0700529 9.36805L0.0934046 9.36805L0.116754 9.39105L0.116754 9.41406L0.116754 9.43706L0.140106 9.43706L0.163456 9.46006L0.163456 9.48307L0.163456 9.50607L0.186808 9.52907L0.210158 9.52907L0.210158 9.55207L0.23351 9.55207L0.23351 9.57508L0.25686 9.59808L0.280211 9.59808L7.35552 16.5911L7.37887 16.5911L8.52306 17.7412C8.87332 18.0863 9.41039 18.0863 9.7373 17.7412C10.0876 17.4192 10.0876 16.8901 9.7373 16.545L2.662 9.57508L2.63865 9.57508L2.63865 9.55207L2.61529 9.52907L2.59194 9.52907L2.59194 9.50607L2.56859 9.48307L2.54524 9.48307L2.07823 9L2.91886 8.14888L4.10975 6.99872L6.53824 4.58339L8.56976 2.60511L8.56976 2.58211L9.7373 1.43195C10.0876 1.1099 10.0876 0.58083 9.7373 0.258785C9.41039 -0.0862618 8.87332 -0.0862618 8.52306 0.258785L7.35552 1.40894Z" fill="#C8C8C8"/>
</svg>
