<svg width="32" height="32" viewBox="0 0 32 32" fill="none" xmlns="http://www.w3.org/2000/svg">
<path fill-rule="evenodd" clip-rule="evenodd" d="M27.8434 6.82822C27.6007 6.29437 27.0925 6 26.4133 6C25.9182 6 25.4838 6.15508 25.4331 6.17398C25.2883 6.22861 10.9395 11.6396 5.0549 14.023C4.53885 14.2312 4.20513 14.5245 4.06136 14.8963C3.8415 15.4708 4.25367 16.0616 4.64589 16.2327C6.10774 16.8678 9.14976 17.7502 10.1026 18.021C10.4172 19.0519 11.5149 22.6475 12.0262 24.1877C12.1603 24.5887 12.553 24.8282 13.0772 24.8282C13.1549 24.8282 13.2042 24.8228 13.2042 24.8228C13.3451 24.8072 13.4676 24.7361 13.5563 24.6353C13.6313 24.5504 13.6833 24.4453 13.6917 24.3272L13.9957 19.9837C14.5711 20.4098 15.4085 21.0294 16.3341 21.7121C18.1646 23.0623 20.3458 24.6638 21.566 25.5342C21.9997 25.8436 22.4187 26 22.813 26C23.6966 26 24.2043 25.2531 24.3706 24.6141C25.3817 20.7304 26.8646 13.3908 27.7511 9.00557L27.9452 8.04608C28.068 7.44 27.9625 7.09049 27.8434 6.82822ZM12.982 18.9271L12.7117 22.7845C12.0459 20.6884 11.0686 17.4713 11.0571 17.4325C11.0537 17.4216 11.0437 17.4149 11.0398 17.4045L11.0371 17.3812L22.256 10.1732C22.256 10.1732 23.0205 9.65566 23.3109 9.59275C23.7029 9.50835 23.7968 9.66162 23.7265 9.75456C23.4553 10.1142 22.1689 11.2093 22.1689 11.2093L13.2257 18.5173L13.226 18.5222C13.0869 18.6131 12.9938 18.7599 12.982 18.9271Z" fill="white"/>
</svg>
