<svg width="32" height="32" viewBox="0 0 32 32" fill="none" xmlns="http://www.w3.org/2000/svg">
<path fill-rule="evenodd" clip-rule="evenodd" d="M27.9947 15.3932C27.8346 9.07354 22.6277 4 16.2179 4C9.88576 4 4.72266 8.95774 4.44695 15.1785C4.44167 15.3491 4.43613 15.5203 4.43613 15.691C4.43613 17.9025 5.05352 19.965 6.12392 21.7297L4 28L10.5253 25.9264C12.2136 26.8528 14.155 27.3822 16.2179 27.3822C22.7269 27.3822 28 22.1488 28 15.691C28 15.5915 28 15.4924 27.9947 15.3932ZM21.6182 18.0513C21.3259 17.9083 19.9083 17.213 19.6434 17.1193C19.3785 17.0199 19.1853 16.9761 18.9925 17.2628C18.7993 17.5493 18.2424 18.1948 18.0767 18.3823C17.906 18.5751 17.7403 18.5973 17.4482 18.4538C17.1612 18.3106 16.229 18.0128 15.1259 17.0312C14.2711 16.2755 13.6861 15.338 13.5207 15.0516C13.3553 14.7643 13.5041 14.6103 13.6476 14.467C13.7798 14.3346 13.9347 14.1307 14.0829 13.9651C14.122 13.9155 14.155 13.8714 14.1882 13.8271C14.2544 13.7224 14.3038 13.6229 14.37 13.485C14.4695 13.2924 14.4199 13.1268 14.3481 12.9833C14.2763 12.8401 13.6969 11.4283 13.4545 10.8546C13.2173 10.2814 12.9745 10.3803 12.8036 10.3803C12.6379 10.3803 12.4447 10.3531 12.2519 10.3531C12.059 10.3531 11.7445 10.4246 11.4799 10.7111C11.215 10.9981 10.4704 11.6929 10.4704 13.1046C10.4704 13.4354 10.5311 13.7662 10.6192 14.0809C10.9116 15.0901 11.5406 15.9226 11.6509 16.0663C11.7941 16.2539 13.6476 19.2425 16.582 20.3952C19.5217 21.5366 19.5217 21.1562 20.0515 21.1066C20.5811 21.0621 21.7618 20.4174 21.9984 19.7442C22.2414 19.0771 22.2414 18.5037 22.1696 18.3823C22.0979 18.2665 21.9048 18.1948 21.6182 18.0513ZM16.2179 25.5184C14.2048 25.5184 12.3347 24.9227 10.7683 23.8914L6.9624 25.1048L8.19771 21.4538C7.01174 19.8326 6.31125 17.8421 6.31125 15.691C6.31125 15.3713 6.32787 15.0516 6.36085 14.7372C6.84631 9.76253 11.0825 5.86387 16.2179 5.86387C21.4198 5.86387 25.6943 9.86197 26.0914 14.9244C26.1135 15.1785 26.1246 15.4317 26.1246 15.691C26.1246 21.1119 21.6789 25.5184 16.2179 25.5184Z" fill="white"/>
</svg>
