<svg width="32" height="32" viewBox="0 0 32 32" fill="none" xmlns="http://www.w3.org/2000/svg">
<path fill-rule="evenodd" clip-rule="evenodd" d="M27.4984 10.4985C27.2224 9.51511 26.4092 8.74081 25.3767 8.47789C23.5051 8 16 8 16 8C16 8 8.49494 8 6.62353 8.47789C5.59078 8.74081 4.77758 9.51511 4.50157 10.4985C4 12.2813 4 16.0002 4 16.0002C4 16.0002 4 19.7191 4.50157 21.5018C4.77758 22.4851 5.59078 23.2596 6.62353 23.5226C8.49494 24 16 24 16 24C16 24 23.5051 24 25.3767 23.5226C26.4092 23.2596 27.2224 22.4851 27.4984 21.5018C28 19.7191 28 16.0002 28 16.0002C28 16.0002 28 12.2813 27.4984 10.4985ZM13.5456 19.3768V12.6237L19.8182 16.0002L13.5456 19.3768Z" fill="white"/>
</svg>
