<svg width="259" height="35" viewBox="0 0 259 35" fill="none" xmlns="http://www.w3.org/2000/svg">
<path fill-rule="evenodd" clip-rule="evenodd" d="M0 0H29.5003L0 29.5003V0ZM35 5.49971V35H5.49971L35 5.49971Z" fill="white"/>
<path fill-rule="evenodd" clip-rule="evenodd" d="M254.121 27.1308L253.04 24.1709H246.656L245.47 27.1308H240.644L247.395 9.50556H252.38L259 27.1308H254.121ZM249.848 14.9758L247.923 20.6834H251.826L249.848 14.9758ZM229.596 16.9837L225.349 27.1308H223.53L219.469 16.9837L217.965 27.1308H213.428L216.409 9.50556H220.919L224.48 18.9128L228.251 9.50556H232.814L235.451 27.1308H230.888L229.596 16.9837ZM202.564 21.2907H199.69V27.1308H195.127V9.50556H202.406C203.936 9.50556 205.519 9.79659 206.863 11.0916C208.235 12.4126 208.498 13.8922 208.498 15.3717C208.498 16.7724 208.313 18.4105 206.943 19.7583C205.571 21.1061 203.936 21.2907 202.564 21.2907ZM203.198 13.8393C202.67 13.2841 201.826 13.2052 201.246 13.2052H199.69V17.5918H201.219C201.695 17.5918 202.59 17.539 203.145 17.0366C203.698 16.561 203.725 15.8473 203.725 15.4245C203.725 14.949 203.672 14.3149 203.198 13.8393ZM178.567 27.5267C175.955 27.5267 173.424 26.6284 171.631 24.9107C169.758 23.1141 168.862 20.6566 168.862 18.3316C168.862 15.9798 169.758 13.4954 171.631 11.7257C173.424 10.008 175.955 9.10966 178.567 9.10966C181.178 9.10966 183.71 10.008 185.503 11.7257C187.376 13.4954 188.272 15.9798 188.272 18.3316C188.272 20.6566 187.376 23.1141 185.503 24.9107C183.71 26.6284 181.178 27.5267 178.567 27.5267ZM182.101 14.949C181.125 14.0247 179.78 13.5483 178.567 13.5483C177.301 13.5483 175.955 13.9978 175.007 14.949C174.057 15.8741 173.608 17.1691 173.608 18.4105C173.608 19.9697 174.347 21.0533 175.007 21.6874C175.851 22.506 177.037 23.0881 178.567 23.0881C180.122 23.0881 181.283 22.5328 182.101 21.7134C182.918 20.8948 183.525 19.6794 183.525 18.3316C183.525 16.9577 182.918 15.7416 182.101 14.949ZM154.675 24.6733V27.1308H150.086V24.6733C146.763 24.6733 144.996 23.801 143.836 22.6645C142.28 21.1061 141.963 19.3087 141.963 17.6975C141.963 16.2172 142.227 14.1303 143.862 12.5711C145.313 11.1704 147.66 10.5624 150.086 10.5624V8H154.675V10.5624C157.101 10.5624 159.449 11.1704 160.899 12.5711C162.534 14.1303 162.798 16.2172 162.798 17.6975C162.798 19.3087 162.481 21.1061 160.925 22.6645C159.765 23.801 157.998 24.6733 154.675 24.6733ZM150.428 14.1035H150.218C149.453 14.1035 148.398 14.1832 147.581 14.923C147.053 15.3985 146.552 16.27 146.552 17.565C146.552 18.543 146.895 19.6258 147.581 20.2867C148.345 21.0265 149.294 21.1322 150.191 21.1322H150.428V14.1035ZM157.181 14.923C156.363 14.1832 155.308 14.1035 154.543 14.1035H154.332V21.1322H154.569C155.466 21.1322 156.416 21.0265 157.181 20.2867C157.866 19.6258 158.209 18.543 158.209 17.565C158.209 16.27 157.708 15.3985 157.181 14.923ZM133.023 27.1308H128.461V13.3898H124.716V9.50556H136.769V13.3898H133.023V27.1308ZM115.223 24.1709H108.841L107.654 27.1308H102.828L109.58 9.50556H114.564L121.184 27.1308H116.305L115.223 24.1709ZM112.033 14.9758L110.107 20.6834H114.011L112.033 14.9758ZM89.4591 16.4131L85.2391 27.1406H80.255L87.6389 9.51612H91.1996L98.6899 27.1406H93.7319L89.4591 16.4131ZM69.8657 13.4166H63.5622V27.1308H59V9.50556H74.4547V27.1308H69.8657V13.4166Z" fill="white"/>
</svg>
